# xmcd
#
# Track frame offsets:
#	150
#	24676
#	48506
#	72433
#	93062
#	120359
#	141907
#	165074
#	187053
#	213871
#	241266
#	267670
#
# Disc length: 4221 seconds
#
# Revision: 0
# Processed by: cddbd v1.4PL0 Copyright (c) Steve Scherf et al.
# Submitted via: EZCDDA 4.3.3.2
#
DISCID=a3107b0c
DTITLE=John Mayall's Bluesbreakers - Bluesbreakers
DYEAR=1900
DGENRE=
TTITLE0=Chicago Line
TTITLE1=Gimme One More Day
TTITLE2=One Life To Live
TTITLE3=The Last Time
TTITLE4=Dream Above The Blues
TTITLE5=Fascinating Lover
TTITLE6=Cold Blooded Woman
TTITLE7=The Dirty Dozen
TTITLE8=Tears Came Rollin' Down
TTITLE9=Life In The Jungle
TTITLE10=Ridin On The L&N (Live  Bonus Track)
TTITLE11=Room To Move (Live Bonus Track)
EXTD=
EXTT0=
EXTT1=
EXTT2=
EXTT3=
EXTT4=
EXTT5=
EXTT6=
EXTT7=
EXTT8=
EXTT9=
EXTT10=
EXTT11=
PLAYORDER=
